<svg width="80" height="80" viewBox="0 0 80 80" fill="none" xmlns="http://www.w3.org/2000/svg">
<g clip-path="url(#clip0_8_32)">
<ellipse cx="34.9302" cy="35.4022" rx="34.9302" ry="35.4022" transform="matrix(-0.987271 -0.159048 -0.159048 0.987271 79.731 10.6177)" fill="#E573EB"/>
<path d="M73.4356 8.16174L73.4356 36.8503C73.4356 42.0713 66.4397 43.7983 64.01 39.1771L47.9356 8.60422L67.112 3.34011C70.2946 2.46647 73.4356 4.86143 73.4356 8.16174Z" fill="#E573EB"/>
<path d="M5.54947 8.16183L5.54947 36.8504C5.54947 42.0714 12.5453 43.7984 14.9751 39.1772L31.0495 8.60431L11.8731 3.34021C8.69048 2.46656 5.54947 4.86153 5.54947 8.16183Z" fill="#E573EB"/>
<g filter="url(#filter0_n_8_32)">
<mask id="path-4-outside-1_8_32" maskUnits="userSpaceOnUse" x="30.3942" y="27.5174" width="52.0615" height="54.5462" fill="black">
<rect fill="white" x="30.3942" y="27.5174" width="52.0615" height="54.5462"/>
<path d="M53.2495 34.0431C57.2063 33.2635 61.2854 33.7571 64.956 35.4421C68.6217 37.1249 71.6851 39.9038 73.7976 43.3781C75.1727 45.6399 74.5469 48.5821 72.37 50.0881L71.5335 50.667C70.4011 51.4502 68.9956 51.7316 67.6488 51.4451C66.302 51.1584 65.1323 50.3291 64.4169 49.1526C63.4084 47.4939 61.9931 46.2423 60.3902 45.5064C58.7921 44.7728 57.0474 44.568 55.3635 44.8997C53.6768 45.2321 52.0734 46.0992 50.7755 47.446C49.4744 48.7964 48.5434 50.5666 48.1473 52.5481C47.7511 54.5306 47.9178 56.5925 48.615 58.4601C49.3117 60.3261 50.492 61.8797 51.9598 62.9571C53.423 64.0312 55.115 64.5932 56.821 64.6181C58.5266 64.643 60.2288 64.1304 61.7145 63.1028C62.847 62.3193 64.2531 62.037 65.6 62.3235C66.9469 62.6101 68.1166 63.4404 68.8321 64.6169L69.3744 65.5088C70.7492 67.7705 70.1232 70.7118 67.9467 72.2178C64.6197 74.5193 60.6914 75.7397 56.6615 75.6808C52.6318 75.6219 48.7394 74.2883 45.4773 71.8938C42.2199 69.5026 39.7462 66.1693 38.3206 62.351C36.8958 58.5345 36.5675 54.3682 37.3672 50.3667C38.1673 46.3643 40.0701 42.6627 42.8801 39.7463C45.6935 36.8265 49.2956 34.8221 53.2495 34.0431ZM56.1992 70.6621C56.3773 70.6716 56.5557 70.6791 56.7345 70.6817L56.7343 70.6808C56.5556 70.6781 56.3772 70.6715 56.1992 70.6621ZM55.0767 70.5591C55.2537 70.5827 55.4315 70.6017 55.6095 70.6186C55.4315 70.6018 55.2538 70.5827 55.0767 70.5591ZM43.3689 47.8706C43.2724 48.0894 43.1791 48.31 43.0919 48.5335L43.3138 47.9952C43.3318 47.9535 43.3506 47.9122 43.3689 47.8706ZM43.552 47.4662C43.5343 47.5036 43.5184 47.5418 43.501 47.5793C43.5327 47.5111 43.5641 47.4427 43.5967 47.375C43.582 47.4055 43.5665 47.4356 43.552 47.4662ZM43.8096 46.947C43.8041 46.9577 43.7986 46.9686 43.7931 46.9793C43.8294 46.9089 43.8674 46.8393 43.9047 46.7695C43.8731 46.8287 43.8405 46.8874 43.8096 46.947ZM44.0849 46.4387C44.0447 46.51 44.0053 46.5818 43.9662 46.6537C44.0053 46.5818 44.0447 46.51 44.0849 46.4387ZM44.2798 46.1017C44.2375 46.1728 44.1965 46.2448 44.1552 46.3166C44.1965 46.2448 44.2375 46.1728 44.2798 46.1017ZM45.8046 45.6256L45.8047 45.6265L45.8046 45.6256ZM48.0631 41.7839C47.5069 42.2192 46.9777 42.697 46.4794 43.2141C45.8151 43.9036 45.2156 44.6544 44.686 45.4546C44.5688 45.6316 44.4556 45.8114 44.3454 45.9932C44.9539 44.9896 45.6692 44.0569 46.4805 43.2149C46.9788 42.6979 47.5073 42.2194 48.0631 41.7839ZM47.175 43.9765C46.9268 44.234 46.6886 44.5011 46.46 44.7761L46.8101 44.3706C46.9294 44.2373 47.051 44.1062 47.1751 43.9774C47.2992 43.8487 47.4252 43.7224 47.5533 43.599L47.175 43.9765ZM54.3971 39.9939C54.1417 40.0442 53.8882 40.1025 53.6368 40.1678L54.0157 40.0761C54.1424 40.0472 54.2696 40.02 54.3973 39.9949C54.7376 39.9278 55.0794 39.8736 55.4218 39.8338L54.9088 39.9036C54.738 39.9303 54.5674 39.9604 54.3971 39.9939ZM55.6537 70.6224C55.8265 70.6383 55.9996 70.6509 56.1732 70.6604C55.9996 70.651 55.8265 70.6382 55.6537 70.6224Z"/>
</mask>
<path d="M53.2495 34.0431C57.2063 33.2635 61.2854 33.7571 64.956 35.4421C68.6217 37.1249 71.6851 39.9038 73.7976 43.3781C75.1727 45.6399 74.5469 48.5821 72.37 50.0881L71.5335 50.667C70.4011 51.4502 68.9956 51.7316 67.6488 51.4451C66.302 51.1584 65.1323 50.3291 64.4169 49.1526C63.4084 47.4939 61.9931 46.2423 60.3902 45.5064C58.7921 44.7728 57.0474 44.568 55.3635 44.8997C53.6768 45.2321 52.0734 46.0992 50.7755 47.446C49.4744 48.7964 48.5434 50.5666 48.1473 52.5481C47.7511 54.5306 47.9178 56.5925 48.615 58.4601C49.3117 60.3261 50.492 61.8797 51.9598 62.9571C53.423 64.0312 55.115 64.5932 56.821 64.6181C58.5266 64.643 60.2288 64.1304 61.7145 63.1028C62.847 62.3193 64.2531 62.037 65.6 62.3235C66.9469 62.6101 68.1166 63.4404 68.8321 64.6169L69.3744 65.5088C70.7492 67.7705 70.1232 70.7118 67.9467 72.2178C64.6197 74.5193 60.6914 75.7397 56.6615 75.6808C52.6318 75.6219 48.7394 74.2883 45.4773 71.8938C42.2199 69.5026 39.7462 66.1693 38.3206 62.351C36.8958 58.5345 36.5675 54.3682 37.3672 50.3667C38.1673 46.3643 40.0701 42.6627 42.8801 39.7463C45.6935 36.8265 49.2956 34.8221 53.2495 34.0431ZM56.1992 70.6621C56.3773 70.6716 56.5557 70.6791 56.7345 70.6817L56.7343 70.6808C56.5556 70.6781 56.3772 70.6715 56.1992 70.6621ZM55.0767 70.5591C55.2537 70.5827 55.4315 70.6017 55.6095 70.6186C55.4315 70.6018 55.2538 70.5827 55.0767 70.5591ZM43.3689 47.8706C43.2724 48.0894 43.1791 48.31 43.0919 48.5335L43.3138 47.9952C43.3318 47.9535 43.3506 47.9122 43.3689 47.8706ZM43.552 47.4662C43.5343 47.5036 43.5184 47.5418 43.501 47.5793C43.5327 47.5111 43.5641 47.4427 43.5967 47.375C43.582 47.4055 43.5665 47.4356 43.552 47.4662ZM43.8096 46.947C43.8041 46.9577 43.7986 46.9686 43.7931 46.9793C43.8294 46.9089 43.8674 46.8393 43.9047 46.7695C43.8731 46.8287 43.8405 46.8874 43.8096 46.947ZM44.0849 46.4387C44.0447 46.51 44.0053 46.5818 43.9662 46.6537C44.0053 46.5818 44.0447 46.51 44.0849 46.4387ZM44.2798 46.1017C44.2375 46.1728 44.1965 46.2448 44.1552 46.3166C44.1965 46.2448 44.2375 46.1728 44.2798 46.1017ZM45.8046 45.6256L45.8047 45.6265L45.8046 45.6256ZM48.0631 41.7839C47.5069 42.2192 46.9777 42.697 46.4794 43.2141C45.8151 43.9036 45.2156 44.6544 44.686 45.4546C44.5688 45.6316 44.4556 45.8114 44.3454 45.9932C44.9539 44.9896 45.6692 44.0569 46.4805 43.2149C46.9788 42.6979 47.5073 42.2194 48.0631 41.7839ZM47.175 43.9765C46.9268 44.234 46.6886 44.5011 46.46 44.7761L46.8101 44.3706C46.9294 44.2373 47.051 44.1062 47.1751 43.9774C47.2992 43.8487 47.4252 43.7224 47.5533 43.599L47.175 43.9765ZM54.3971 39.9939C54.1417 40.0442 53.8882 40.1025 53.6368 40.1678L54.0157 40.0761C54.1424 40.0472 54.2696 40.02 54.3973 39.9949C54.7376 39.9278 55.0794 39.8736 55.4218 39.8338L54.9088 39.9036C54.738 39.9303 54.5674 39.9604 54.3971 39.9939ZM55.6537 70.6224C55.8265 70.6383 55.9996 70.6509 56.1732 70.6604C55.9996 70.651 55.8265 70.6382 55.6537 70.6224Z" fill="#1F2121"/>
<path d="M53.2495 34.0431L52.6696 31.0996L52.6696 31.0996L53.2495 34.0431ZM64.956 35.4421L66.2076 32.7157L66.2076 32.7157L64.956 35.4421ZM73.7976 43.3781L76.361 41.8196L76.3609 41.8195L73.7976 43.3781ZM72.37 50.0881L70.6632 47.6209L70.6629 47.6211L72.37 50.0881ZM71.5335 50.667L73.2401 53.1342L73.2406 53.1339L71.5335 50.667ZM67.6488 51.4451L67.0243 54.3794L67.0247 54.3794L67.6488 51.4451ZM64.4169 49.1526L61.8535 50.7112L61.8536 50.7113L64.4169 49.1526ZM60.3902 45.5064L61.6419 42.78L61.6417 42.7799L60.3902 45.5064ZM55.3635 44.8997L54.7837 41.9563L54.7834 41.9563L55.3635 44.8997ZM50.7755 47.446L48.6153 45.3644L48.6152 45.3645L50.7755 47.446ZM48.1473 52.5481L45.2055 51.96L45.2055 51.9602L48.1473 52.5481ZM48.615 58.4601L45.8045 59.5094L45.8045 59.5094L48.615 58.4601ZM51.9598 62.9571L50.1845 65.3754L50.1845 65.3754L51.9598 62.9571ZM56.821 64.6181L56.7771 67.6178L56.7772 67.6178L56.821 64.6181ZM61.7145 63.1028L63.4211 65.5701L63.4213 65.5699L61.7145 63.1028ZM65.6 62.3235L66.2245 59.3892L66.2241 59.3891L65.6 62.3235ZM68.8321 64.6169L71.3954 63.0583L71.3954 63.0582L68.8321 64.6169ZM69.3744 65.5088L71.9379 63.9506L71.9377 63.9502L69.3744 65.5088ZM67.9467 72.2178L69.6535 74.685L69.6537 74.6848L67.9467 72.2178ZM56.6615 75.6808L56.6176 78.6805L56.6176 78.6805L56.6615 75.6808ZM45.4773 71.8938L43.7021 74.3122L43.7021 74.3122L45.4773 71.8938ZM38.3206 62.351L35.5101 63.4003L35.5101 63.4004L38.3206 62.351ZM37.3672 50.3667L34.4254 49.7787L34.4254 49.7788L37.3672 50.3667ZM42.8801 39.7463L40.7198 37.6647L40.7198 37.6648L42.8801 39.7463ZM56.1992 70.6621L56.3563 67.6662C54.702 67.5795 53.2905 68.85 53.2033 70.5043C53.1162 72.1586 54.3864 73.5704 56.0406 73.6579L56.1992 70.6621ZM56.7345 70.6817L56.6906 73.6814C57.5772 73.6944 58.4241 73.3145 59.004 72.6437C59.5839 71.9729 59.8373 71.08 59.6963 70.2046L56.7345 70.6817ZM56.7343 70.6808L59.6961 70.2036C59.4645 68.7661 58.2341 67.7024 56.7782 67.6811L56.7343 70.6808ZM55.0767 70.5591L55.4728 67.5853C53.8307 67.3666 52.3221 68.5203 52.103 70.1624C51.884 71.8045 53.0374 73.3133 54.6795 73.5327L55.0767 70.5591ZM55.6095 70.6186L55.3271 73.6053C56.9762 73.7613 58.4397 72.5511 58.5961 70.902C58.7526 69.2529 57.5428 67.7891 55.8938 67.6321L55.6095 70.6186ZM43.3689 47.8706L46.1139 49.0811C46.7823 47.5652 46.0954 45.7944 44.5796 45.1258C43.0637 44.4572 41.2929 45.1439 40.6241 46.6597L43.3689 47.8706ZM43.0919 48.5335L40.2971 47.443C39.6989 48.9761 40.4475 50.705 41.9749 51.3178C43.5022 51.9305 45.2382 51.1984 45.8654 49.677L43.0919 48.5335ZM43.3138 47.9952L40.5592 46.807C40.5527 46.8219 40.5465 46.8368 40.5403 46.8518L43.3138 47.9952ZM43.552 47.4662L40.8409 46.1818L40.8408 46.1821L43.552 47.4662ZM43.501 47.5793L40.7801 46.3157C40.0823 47.8184 40.7346 49.6022 42.2373 50.3001C43.7399 50.9981 45.5238 50.3458 46.2218 48.8432L43.501 47.5793ZM43.5967 47.375L46.2998 48.6761C47.0183 47.1834 46.3909 45.3908 44.8983 44.6721C43.4058 43.9533 41.6131 44.5804 40.894 46.0728L43.5967 47.375ZM43.8096 46.947L46.4737 48.3264L46.4738 48.3261L43.8096 46.947ZM43.7931 46.9793L41.126 45.6058C40.3675 47.0788 40.9465 48.8877 42.4194 49.6463C43.8923 50.405 45.7012 49.8261 46.46 48.3533L43.7931 46.9793ZM43.9047 46.7695L46.5517 48.1814C47.3314 46.7195 46.7785 44.9024 45.3167 44.1225C43.8549 43.3427 42.0377 43.8955 41.2578 45.3573L43.9047 46.7695ZM44.0849 46.4387L46.6985 47.9115C47.5118 46.4681 47.0011 44.6386 45.5577 43.8252C44.1143 43.0118 42.2848 43.5224 41.4714 44.9658L44.0849 46.4387ZM43.9662 46.6537L41.3306 45.2205C40.5391 46.6761 41.0774 48.4976 42.5329 49.2892C43.9884 50.0807 45.81 49.5425 46.6016 48.0871L43.9662 46.6537ZM44.2798 46.1017L46.8573 47.6368C47.7051 46.2133 47.2385 44.3721 45.815 43.5242C44.3916 42.6764 42.5503 43.143 41.7024 44.5664L44.2798 46.1017ZM44.1552 46.3166L41.5545 44.8212C40.7286 46.2575 41.2234 48.0914 42.6597 48.9173C44.096 49.7432 45.9298 49.2485 46.7558 47.8122L44.1552 46.3166ZM48.7664 45.1484C48.5029 43.5127 46.9632 42.4002 45.3274 42.6638C43.6917 42.9273 42.5792 44.467 42.8427 46.1027L45.8046 45.6256L48.7664 45.1484ZM42.8429 46.1037C43.1064 47.7394 44.6461 48.8519 46.2819 48.5884C47.9176 48.3248 49.03 46.7852 48.7665 45.1494L45.8047 45.6265L42.8429 46.1037ZM48.0631 41.7839L49.9136 44.1452C51.2174 43.1234 51.4464 41.2382 50.4249 39.9341C49.4035 38.6299 47.5184 38.4005 46.214 39.4215L48.0631 41.7839ZM46.4794 43.2141L44.3191 41.1325L44.3191 41.1325L46.4794 43.2141ZM44.686 45.4546L42.1843 43.7989L42.1841 43.7991L44.686 45.4546ZM44.3454 45.9932L41.7801 44.4379C40.9211 45.8547 41.3733 47.6995 42.7901 48.5585C44.2068 49.4175 46.0517 48.9653 46.9107 47.5486L44.3454 45.9932ZM46.4805 43.2149L44.3202 41.1333L44.3202 41.1333L46.4805 43.2149ZM47.175 43.9765L45.0561 41.8527C45.0422 41.8666 45.0283 41.8807 45.0146 41.8949L47.175 43.9765ZM46.46 44.7761L44.1525 42.859C43.1008 44.125 43.2653 46.0018 44.5212 47.0655C45.7771 48.1291 47.6555 47.9823 48.7309 46.7365L46.46 44.7761ZM46.8101 44.3706L44.5744 42.3702C44.5625 42.3835 44.5508 42.3968 44.5392 42.4102L46.8101 44.3706ZM47.1751 43.9774L45.0148 41.8958L45.0147 41.8959L47.1751 43.9774ZM47.5533 43.599L49.6722 45.7228C50.8379 44.5598 50.8483 42.6745 49.6955 41.4987C48.5426 40.3229 46.6575 40.2961 45.4717 41.4387L47.5533 43.599ZM54.3971 39.9939L53.8172 37.0505L53.8172 37.0505L54.3971 39.9939ZM53.6368 40.1678L52.882 37.2643C51.288 37.6787 50.3261 39.3006 50.727 40.8981C51.1279 42.4955 52.7417 43.4711 54.3425 43.0836L53.6368 40.1678ZM54.0157 40.0761L53.3493 37.1511C53.3362 37.1541 53.3231 37.1571 53.31 37.1603L54.0157 40.0761ZM54.3973 39.9949L53.8174 37.0514L53.8173 37.0515L54.3973 39.9949ZM55.4218 39.8338L55.8262 42.8064C57.4567 42.5846 58.6043 41.0907 58.3982 39.4581C58.1921 37.8255 56.7094 36.6636 55.0748 36.8539L55.4218 39.8338ZM54.9088 39.9036L54.5044 36.9309C54.4846 36.9336 54.4649 36.9365 54.4452 36.9396L54.9088 39.9036ZM55.6537 70.6224L55.9267 67.6349C54.2771 67.4841 52.8175 68.6989 52.6662 70.3484C52.5149 71.998 53.7293 73.458 55.3788 73.6098L55.6537 70.6224ZM56.1732 70.6604L56.0105 73.656C57.6647 73.7458 59.0785 72.4779 59.1687 70.8237C59.2589 69.1696 57.9913 67.7555 56.3373 67.6649L56.1732 70.6604ZM53.2495 34.0431L53.8294 36.9865C57.1623 36.3299 60.6009 36.7439 63.7045 38.1686L64.956 35.4421L66.2076 32.7157C61.9698 30.7703 57.2504 30.1972 52.6696 31.0996L53.2495 34.0431ZM64.956 35.4421L63.7044 38.1686C66.8058 39.5923 69.4208 41.9543 71.2342 44.9367L73.7976 43.3781L76.3609 41.8195C73.9493 37.8533 70.4377 34.6575 66.2076 32.7157L64.956 35.4421ZM73.7976 43.3781L71.2342 44.9367C71.7844 45.8416 71.5338 47.0186 70.6632 47.6209L72.37 50.0881L74.0769 52.5552C77.56 50.1455 78.5611 45.4383 76.361 41.8196L73.7976 43.3781ZM72.37 50.0881L70.6629 47.6211L69.8264 48.2L71.5335 50.667L73.2406 53.1339L74.0772 52.555L72.37 50.0881ZM71.5335 50.667L69.8269 48.1997C69.3743 48.5127 68.8122 48.6254 68.273 48.5107L67.6488 51.4451L67.0247 54.3794C69.1791 54.8377 71.4278 54.3878 73.2401 53.1342L71.5335 50.667ZM67.6488 51.4451L68.2733 48.5108C67.7339 48.396 67.266 48.0639 66.9802 47.5939L64.4169 49.1526L61.8536 50.7113C62.9987 52.5944 64.8701 53.9209 67.0243 54.3794L67.6488 51.4451ZM64.4169 49.1526L66.9803 47.594C65.6726 45.4433 63.809 43.7749 61.6419 42.78L60.3902 45.5064L59.1385 48.2328C60.1772 48.7096 61.1441 49.5445 61.8535 50.7112L64.4169 49.1526ZM60.3902 45.5064L61.6417 42.7799C59.4762 41.7859 57.0912 41.5017 54.7837 41.9563L55.3635 44.8997L55.9433 47.8431C57.0035 47.6343 58.1079 47.7597 59.1387 48.2329L60.3902 45.5064ZM55.3635 44.8997L54.7834 41.9563C52.4755 42.4112 50.3258 43.5892 48.6153 45.3644L50.7755 47.446L52.9358 49.5277C53.821 48.6091 54.8781 48.0531 55.9436 47.8431L55.3635 44.8997ZM50.7755 47.446L48.6152 45.3645C46.9042 47.1403 45.7106 49.4336 45.2055 51.96L48.1473 52.5481L51.0891 53.1362C51.3763 51.6997 52.0447 50.4526 52.9359 49.5275L50.7755 47.446ZM48.1473 52.5481L45.2055 51.9602C44.7004 54.4874 44.9111 57.1164 45.8045 59.5094L48.615 58.4601L51.4256 57.4108C50.9245 56.0686 50.8018 54.5738 51.0891 53.136L48.1473 52.5481ZM48.615 58.4601L45.8045 59.5094C46.6978 61.9019 48.2281 63.9393 50.1845 65.3754L51.9598 62.9571L53.735 60.5387C52.756 59.8201 51.9256 58.7503 51.4256 57.4108L48.615 58.4601ZM51.9598 62.9571L50.1845 65.3754C52.1398 66.8107 54.4346 67.5835 56.7771 67.6178L56.821 64.6181L56.8649 61.6184C55.7955 61.6028 54.7062 61.2516 53.735 60.5387L51.9598 62.9571ZM56.821 64.6181L56.7772 67.6178C59.1202 67.652 61.4321 66.9458 63.4211 65.5701L61.7145 63.1028L60.0079 60.6355C59.0255 61.315 57.9331 61.634 56.8648 61.6184L56.821 64.6181ZM61.7145 63.1028L63.4213 65.5699C63.8749 65.2561 64.4379 65.1434 64.9759 65.2578L65.6 62.3235L66.2241 59.3891C64.0683 58.9306 61.8191 59.3826 60.0078 60.6356L61.7145 63.1028ZM65.6 62.3235L64.9755 65.2578C65.5139 65.3724 65.9824 65.7047 66.2688 66.1757L68.8321 64.6169L71.3954 63.0582C70.2508 61.1761 68.3799 59.8479 66.2245 59.3892L65.6 62.3235ZM68.8321 64.6169L66.2687 66.1756L66.8111 67.0675L69.3744 65.5088L71.9377 63.9502L71.3954 63.0583L68.8321 64.6169ZM69.3744 65.5088L66.8109 67.0671C67.3607 67.9717 67.1104 69.1483 66.2397 69.7508L67.9467 72.2178L69.6537 74.6848C73.136 72.2753 74.1376 67.5693 71.9379 63.9506L69.3744 65.5088ZM67.9467 72.2178L66.24 69.7506C63.4152 71.7047 60.0965 72.7307 56.7053 72.6811L56.6615 75.6808L56.6176 78.6805C61.2863 78.7487 65.8242 77.3339 69.6535 74.685L67.9467 72.2178ZM56.6615 75.6808L56.7053 72.6811C53.3138 72.6316 50.0239 71.5097 47.2525 69.4754L45.4773 71.8938L43.7021 74.3122C47.455 77.067 51.9498 78.6123 56.6176 78.6805L56.6615 75.6808ZM45.4773 71.8938L47.2526 69.4755C44.4837 67.4429 42.3601 64.5934 41.1311 61.3017L38.3206 62.351L35.5101 63.4004C37.1323 67.7453 39.956 71.5622 43.7021 74.3122L45.4773 71.8938ZM38.3206 62.351L41.1311 61.3018C39.9027 58.0114 39.618 54.4122 40.3091 50.9547L37.3672 50.3667L34.4254 49.7788C33.517 54.3241 33.8888 59.0576 35.5101 63.4003L38.3206 62.351ZM37.3672 50.3667L40.309 50.9548C41.0002 47.497 42.6406 44.3185 45.0404 41.8279L42.8801 39.7463L40.7198 37.6648C37.4995 41.0068 35.3344 45.2317 34.4254 49.7787L37.3672 50.3667ZM42.8801 39.7463L45.0404 41.8279C47.442 39.3356 50.4981 37.6429 53.8295 36.9865L53.2495 34.0431L52.6696 31.0996C48.0932 32.0014 43.9451 34.3175 40.7198 37.6647L42.8801 39.7463ZM56.1992 70.6621L56.0406 73.6579C56.2379 73.6684 56.4584 73.678 56.6906 73.6814L56.7345 70.6817L56.7784 67.682C56.653 67.6802 56.5167 67.6747 56.3577 67.6663L56.1992 70.6621ZM56.7345 70.6817L59.6963 70.2046L59.6961 70.2036L56.7343 70.6808L53.7725 71.1579L53.7727 71.1589L56.7345 70.6817ZM56.7343 70.6808L56.7782 67.6811C56.6447 67.6791 56.5049 67.674 56.3563 67.6662L56.1992 70.6621L56.0421 73.658C56.2496 73.6689 56.4665 73.6772 56.6905 73.6804L56.7343 70.6808ZM55.0767 70.5591L54.6795 73.5327C54.9076 73.5631 55.126 73.5862 55.3253 73.6051L55.6095 70.6186L55.8938 67.6321C55.7369 67.6172 55.5999 67.6023 55.4739 67.5855L55.0767 70.5591ZM55.6095 70.6186L55.892 67.632C55.7387 67.6175 55.6009 67.6024 55.4728 67.5853L55.0767 70.5591L54.6805 73.5328C54.9066 73.5629 55.1242 73.5861 55.3271 73.6053L55.6095 70.6186ZM43.3689 47.8706L40.624 46.6602C40.5157 46.9057 40.4045 47.1679 40.2971 47.443L43.0919 48.5335L45.8867 49.624C45.9537 49.4522 46.0292 49.2732 46.1139 49.0811L43.3689 47.8706ZM43.0919 48.5335L45.8654 49.677L46.0873 49.1387L43.3138 47.9952L40.5403 46.8518L40.3184 47.39L43.0919 48.5335ZM43.3138 47.9952L46.0685 49.1835C46.0821 49.1519 46.0756 49.1678 46.1137 49.0815L43.3689 47.8706L40.6241 46.6597C40.6177 46.6744 40.6132 46.6844 40.6006 46.7128C40.5901 46.7362 40.5752 46.7698 40.5592 46.807L43.3138 47.9952ZM43.552 47.4662L40.8408 46.1821C40.8135 46.2397 40.791 46.2907 40.783 46.3088C40.7772 46.3219 40.7762 46.3242 40.7748 46.3273C40.7741 46.3289 40.7762 46.3241 40.7801 46.3157L43.501 47.5793L46.2219 48.8429C46.2345 48.8158 46.2452 48.7922 46.2529 48.7749C46.26 48.7591 46.2673 48.7425 46.2698 48.7367C46.2737 48.728 46.2741 48.7272 46.2734 48.7285C46.2726 48.7305 46.2689 48.7385 46.2633 48.7504L43.552 47.4662ZM43.501 47.5793L46.2218 48.8432C46.2616 48.7575 46.279 48.7194 46.2998 48.6761L43.5967 47.375L40.8935 46.0738C40.8492 46.166 40.8038 46.2646 40.7803 46.3154L43.501 47.5793ZM43.5967 47.375L40.894 46.0728C40.8953 46.0702 40.8965 46.0678 40.8855 46.0899C40.8778 46.1055 40.8602 46.1411 40.8409 46.1818L43.552 47.4662L46.2632 48.7507C46.2584 48.7608 46.2557 48.766 46.263 48.7512C46.2653 48.7466 46.2714 48.7344 46.2767 48.7235C46.2826 48.7115 46.2905 48.6955 46.2993 48.6771L43.5967 47.375ZM43.8096 46.947L41.1456 45.5675C41.1377 45.5827 41.1309 45.5961 41.1282 45.6014C41.1264 45.605 41.1259 45.606 41.1253 45.6071C41.1249 45.6079 41.1253 45.6071 41.1262 45.6054L43.7931 46.9793L46.46 48.3533C46.4636 48.3462 46.4668 48.34 46.4692 48.3354C46.4713 48.3311 46.4736 48.3267 46.4745 48.3249C46.4773 48.3194 46.476 48.322 46.4737 48.3264L43.8096 46.947ZM43.7931 46.9793L46.4602 48.3528C46.4835 48.3076 46.4944 48.2887 46.5516 48.1816L43.9047 46.7695L41.2578 45.3573C41.2404 45.39 41.1753 45.5101 41.126 45.6058L43.7931 46.9793ZM43.9047 46.7695L41.2577 45.3575C41.247 45.3777 41.2394 45.3916 41.2175 45.432C41.1995 45.4653 41.1735 45.5137 41.1455 45.5678L43.8096 46.947L46.4738 48.3261C46.4976 48.2802 46.4839 48.3084 46.5517 48.1814L43.9047 46.7695ZM44.0849 46.4387L41.4713 44.966C41.4207 45.0557 41.3733 45.1421 41.3306 45.2205L43.9662 46.6537L46.6017 48.0869C46.6373 48.0214 46.6687 47.9643 46.6985 47.9115L44.0849 46.4387ZM43.9662 46.6537L46.6016 48.0871C46.6374 48.0212 46.6687 47.9642 46.6984 47.9117L44.0849 46.4387L41.4714 44.9658C41.4206 45.0558 41.3731 45.1424 41.3307 45.2203L43.9662 46.6537ZM44.2798 46.1017L41.7023 44.5666C41.6446 44.6635 41.5865 44.7655 41.5545 44.8212L44.1552 46.3166L46.7559 47.812C46.8065 47.7241 46.8303 47.6821 46.8573 47.6368L44.2798 46.1017ZM44.1552 46.3166L46.7558 47.8122C46.8067 47.7237 46.8302 47.6822 46.8572 47.637L44.2798 46.1017L41.7024 44.5664C41.6447 44.6634 41.5863 44.7659 41.5546 44.821L44.1552 46.3166ZM45.8046 45.6256L42.8427 46.1027L42.8429 46.1037L45.8047 45.6265L48.7665 45.1494L48.7664 45.1484L45.8046 45.6256ZM45.8047 45.6265L48.7665 45.1494L48.7664 45.1484L45.8046 45.6256L42.8427 46.1027L42.8429 46.1037L45.8047 45.6265ZM48.0631 41.7839L46.214 39.4215C45.5463 39.9441 44.9133 40.5159 44.3191 41.1325L46.4794 43.2141L48.6397 45.2957C49.0422 44.878 49.4676 44.4943 49.9123 44.1462L48.0631 41.7839ZM46.4794 43.2141L44.3191 41.1325C43.5253 41.9563 42.8122 42.8502 42.1843 43.7989L44.686 45.4546L47.1877 47.1104C47.619 46.4587 48.1048 45.8509 48.6397 45.2957L46.4794 43.2141ZM44.686 45.4546L42.1841 43.7991C42.0422 44.0136 41.9078 44.2272 41.7801 44.4379L44.3454 45.9932L46.9108 47.5485C47.0035 47.3956 47.0955 47.2497 47.1878 47.1101L44.686 45.4546ZM44.3454 45.9932L46.9107 47.5486C47.4062 46.7315 47.9863 45.9759 48.6409 45.2965L46.4805 43.2149L44.3202 41.1333C43.3521 42.138 42.5017 43.2477 41.7802 44.4378L44.3454 45.9932ZM46.4805 43.2149L48.6408 45.2965C49.0451 44.877 49.4704 44.4924 49.9136 44.1452L48.0631 41.7839L46.2126 39.4226C45.5441 39.9464 44.9124 40.5187 44.3202 41.1333L46.4805 43.2149ZM47.175 43.9765L45.0146 41.8949C44.7132 42.2077 44.426 42.5299 44.1525 42.859L46.46 44.7761L48.7676 46.6932C48.9511 46.4723 49.1404 46.2603 49.3353 46.0581L47.175 43.9765ZM46.46 44.7761L48.7309 46.7365L49.081 46.3309L46.8101 44.3706L44.5392 42.4102L44.1891 42.8158L46.46 44.7761ZM46.8101 44.3706L49.0459 46.3709C49.1408 46.2648 49.2373 46.1608 49.3355 46.059L47.1751 43.9774L45.0147 41.8959C44.8647 42.0516 44.7179 42.2098 44.5744 42.3702L46.8101 44.3706ZM47.1751 43.9774L49.3354 46.059C49.435 45.9557 49.5348 45.8558 49.6349 45.7593L47.5533 43.599L45.4717 41.4387C45.3156 41.5891 45.1634 41.7416 45.0148 41.8958L47.1751 43.9774ZM47.5533 43.599L45.4345 41.4752L45.0561 41.8527L47.175 43.9765L49.2938 46.1003L49.6722 45.7228L47.5533 43.599ZM54.3971 39.9939L53.8172 37.0505C53.5004 37.1129 53.1886 37.1846 52.882 37.2643L53.6368 40.1678L54.3916 43.0713C54.5878 43.0203 54.783 42.9755 54.9771 42.9373L54.3971 39.9939ZM53.6368 40.1678L54.3425 43.0836L54.7214 42.9919L54.0157 40.0761L53.31 37.1603L52.9311 37.252L53.6368 40.1678ZM54.0157 40.0761L54.6821 43.0012C54.7833 42.9781 54.8816 42.9571 54.9773 42.9383L54.3973 39.9949L53.8173 37.0515C53.6576 37.0829 53.5015 37.1164 53.3493 37.1511L54.0157 40.0761ZM54.3973 39.9949L54.9772 42.9383C55.2446 42.8856 55.5086 42.8439 55.7688 42.8136L55.4218 39.8338L55.0748 36.8539C54.6502 36.9033 54.2307 36.97 53.8174 37.0514L54.3973 39.9949ZM55.4218 39.8338L55.0174 36.8611L54.5044 36.9309L54.9088 39.9036L55.3132 42.8762L55.8262 42.8064L55.4218 39.8338ZM54.9088 39.9036L54.4452 36.9396C54.236 36.9723 54.0267 37.0092 53.8172 37.0505L54.3971 39.9939L54.977 42.9373C55.1081 42.9115 55.2399 42.8882 55.3725 42.8675L54.9088 39.9036ZM55.6537 70.6224L55.3788 73.6098C55.59 73.6292 55.8001 73.6444 56.0091 73.6559L56.1732 70.6604L56.3373 67.6649C56.1991 67.6573 56.0629 67.6474 55.9285 67.635L55.6537 70.6224ZM56.1732 70.6604L56.3358 67.6648C56.2008 67.6575 56.0645 67.6474 55.9267 67.6349L55.6537 70.6224L55.3806 73.6099C55.5884 73.6289 55.7984 73.6445 56.0105 73.656L56.1732 70.6604Z" fill="#F4F4F4" fill-opacity="0.85" mask="url(#path-4-outside-1_8_32)"/>
</g>
<g filter="url(#filter1_n_8_32)">
<mask id="path-6-outside-2_8_32" maskUnits="userSpaceOnUse" x="1.80953" y="3.37502" width="52.3796" height="56.5207" fill="black">
<rect fill="white" x="1.80953" y="3.37502" width="52.3796" height="56.5207"/>
<path d="M38.8987 7.85322C41.6287 7.43797 44.1786 9.31474 44.5939 12.0447C45.0092 14.7747 43.1324 17.3246 40.4024 17.7399L30.5341 19.2407L35.0407 47.2149C35.4794 49.9409 33.6253 52.5063 30.8994 52.9456C28.1732 53.3848 25.6071 51.5307 25.1678 48.8045L20.6474 20.7444L11.7322 22.1015C9.00229 22.5166 6.45227 20.6399 6.03696 17.91C5.62187 15.1801 7.49857 12.6301 10.2285 12.2148L38.8987 7.85322Z"/>
</mask>
<path d="M38.8987 7.85322L38.4476 4.88733L38.4475 4.88734L38.8987 7.85322ZM44.5939 12.0447L47.5598 11.5936L47.5598 11.5935L44.5939 12.0447ZM40.4024 17.7399L40.8535 20.7058L40.8536 20.7058L40.4024 17.7399ZM30.5341 19.2407L30.083 16.2748L27.0909 16.7298L27.5723 19.7178L30.5341 19.2407ZM35.0407 47.2149L38.0026 46.7383L38.0025 46.7378L35.0407 47.2149ZM30.8994 52.9456L31.3766 55.9074L31.3767 55.9074L30.8994 52.9456ZM25.1678 48.8045L22.206 49.2816L22.206 49.2816L25.1678 48.8045ZM20.6474 20.7444L23.6092 20.2672L23.1362 17.331L20.1959 17.7785L20.6474 20.7444ZM11.7322 22.1015L12.1831 25.0674L12.1836 25.0673L11.7322 22.1015ZM6.03696 17.91L3.07106 18.361L3.07109 18.3612L6.03696 17.91ZM10.2285 12.2148L9.77726 9.2489L9.77724 9.2489L10.2285 12.2148ZM38.8987 7.85322L39.3499 10.8191C40.4417 10.653 41.4619 11.4037 41.6281 12.4959L44.5939 12.0447L47.5598 11.5935C46.8953 7.22574 42.8157 4.22291 38.4476 4.88733L38.8987 7.85322ZM44.5939 12.0447L41.628 12.4958C41.7941 13.5876 41.0434 14.6079 39.9512 14.774L40.4024 17.7399L40.8536 20.7058C45.2214 20.0413 48.2242 15.9617 47.5598 11.5936L44.5939 12.0447ZM40.4024 17.7399L39.9514 14.774L30.083 16.2748L30.5341 19.2407L30.9851 22.2066L40.8535 20.7058L40.4024 17.7399ZM30.5341 19.2407L27.5723 19.7178L32.0789 47.6921L35.0407 47.2149L38.0025 46.7378L33.4959 18.7635L30.5341 19.2407ZM35.0407 47.2149L32.0788 47.6916C32.2542 48.7817 31.5128 49.808 30.4221 49.9838L30.8994 52.9456L31.3767 55.9074C35.7378 55.2046 38.7046 51.1 38.0026 46.7383L35.0407 47.2149ZM30.8994 52.9456L30.4223 49.9838C29.3318 50.1594 28.3053 49.4178 28.1296 48.3273L25.1678 48.8045L22.206 49.2816C22.9088 53.6436 27.0145 56.6101 31.3766 55.9074L30.8994 52.9456ZM25.1678 48.8045L28.1296 48.3273L23.6092 20.2672L20.6474 20.7444L17.6856 21.2215L22.206 49.2816L25.1678 48.8045ZM20.6474 20.7444L20.1959 17.7785L11.2807 19.1356L11.7322 22.1015L12.1836 25.0673L21.0988 23.7102L20.6474 20.7444ZM11.7322 22.1015L11.2812 19.1356C10.1892 19.3016 9.16896 18.5507 9.00284 17.4588L6.03696 17.91L3.07109 18.3612C3.73558 22.729 7.81536 25.7315 12.1831 25.0674L11.7322 22.1015ZM6.03696 17.91L9.00287 17.459C8.83684 16.3671 9.58771 15.3468 10.6797 15.1807L10.2285 12.2148L9.77724 9.2489C5.40943 9.9134 2.40691 13.9932 3.07106 18.361L6.03696 17.91ZM10.2285 12.2148L10.6796 15.1807L39.3499 10.8191L38.8987 7.85322L38.4475 4.88734L9.77726 9.2489L10.2285 12.2148Z" fill="black" fill-opacity="0.85" mask="url(#path-6-outside-2_8_32)"/>
<path d="M10.9803 17.1581L39.6504 12.7964" stroke="white" stroke-width="10" stroke-linecap="round"/>
<path d="M25.2723 18.0184L30.1037 48.0093" stroke="white" stroke-width="10" stroke-linecap="round"/>
</g>
</g>
<defs>
<filter id="filter0_n_8_32" x="33.9406" y="30.6827" width="43.5855" height="48.0002" filterUnits="userSpaceOnUse" color-interpolation-filters="sRGB">
<feFlood flood-opacity="0" result="BackgroundImageFix"/>
<feBlend mode="normal" in="SourceGraphic" in2="BackgroundImageFix" result="shape"/>
<feTurbulence type="fractalNoise" baseFrequency="0.062893085181713104 0.062893085181713104" stitchTiles="stitch" numOctaves="3" result="noise" seed="6994" />
<feColorMatrix in="noise" type="luminanceToAlpha" result="alphaNoise" />
<feComponentTransfer in="alphaNoise" result="coloredNoise1">
<feFuncA type="discrete" tableValues="0 0 0 0 0 0 1 1 1 1 1 1 1 1 1 1 1 1 1 1 1 1 1 1 1 1 1 1 1 1 1 1 1 1 1 1 1 1 1 1 1 1 1 1 1 0 0 0 0 0 0 0 0 0 0 0 0 0 0 0 0 0 0 0 0 0 0 0 0 0 0 0 0 0 0 0 0 0 0 0 0 0 0 0 0 0 0 0 0 0 0 0 0 0 0 0 0 0 0 0 "/>
</feComponentTransfer>
<feComposite operator="in" in2="shape" in="coloredNoise1" result="noise1Clipped" />
<feComponentTransfer in="alphaNoise" result="coloredNoise2">
<feFuncA type="discrete" tableValues="0 0 0 0 0 0 0 0 0 0 0 0 0 0 0 0 0 0 0 0 0 0 0 0 0 0 0 0 0 0 0 0 0 0 0 0 0 0 0 0 0 0 0 0 0 0 0 0 0 0 0 0 0 0 0 1 1 1 1 1 1 1 1 1 1 1 1 1 1 1 1 1 1 1 1 1 1 1 1 1 1 1 1 1 1 1 1 1 1 1 1 1 1 1 0 0 0 0 0 0 "/>
</feComponentTransfer>
<feComposite operator="in" in2="shape" in="coloredNoise2" result="noise2Clipped" />
<feFlood flood-color="rgba(201, 201, 201, 0.06)" result="color1Flood" />
<feComposite operator="in" in2="noise1Clipped" in="color1Flood" result="color1" />
<feFlood flood-color="rgba(255, 255, 255, 0.03)" result="color2Flood" />
<feComposite operator="in" in2="noise2Clipped" in="color2Flood" result="color2" />
<feMerge result="effect1_noise_8_32">
<feMergeNode in="shape" />
<feMergeNode in="color1" />
<feMergeNode in="color2" />
</feMerge>
</filter>
<filter id="filter1_n_8_32" x="2.97904" y="4.79526" width="44.6728" height="51.2152" filterUnits="userSpaceOnUse" color-interpolation-filters="sRGB">
<feFlood flood-opacity="0" result="BackgroundImageFix"/>
<feBlend mode="normal" in="SourceGraphic" in2="BackgroundImageFix" result="shape"/>
<feTurbulence type="fractalNoise" baseFrequency="0.10000000149011612 0.10000000149011612" stitchTiles="stitch" numOctaves="3" result="noise" seed="9179" />
<feColorMatrix in="noise" type="luminanceToAlpha" result="alphaNoise" />
<feComponentTransfer in="alphaNoise" result="coloredNoise1">
<feFuncA type="discrete" tableValues="0 0 0 0 0 0 1 1 1 1 1 1 1 1 1 1 1 1 1 1 1 1 1 1 1 1 1 1 1 1 1 1 1 1 1 1 1 1 1 1 1 1 1 0 0 0 0 0 0 0 0 0 0 0 0 0 0 0 0 0 0 0 0 0 0 0 0 0 0 0 0 0 0 0 0 0 0 0 0 0 0 0 0 0 0 0 0 0 0 0 0 0 0 0 0 0 0 0 0 0 "/>
</feComponentTransfer>
<feComposite operator="in" in2="shape" in="coloredNoise1" result="noise1Clipped" />
<feComponentTransfer in="alphaNoise" result="coloredNoise2">
<feFuncA type="discrete" tableValues="0 0 0 0 0 0 0 0 0 0 0 0 0 0 0 0 0 0 0 0 0 0 0 0 0 0 0 0 0 0 0 0 0 0 0 0 0 0 0 0 0 0 0 0 0 0 0 0 0 0 0 0 0 0 0 0 0 1 1 1 1 1 1 1 1 1 1 1 1 1 1 1 1 1 1 1 1 1 1 1 1 1 1 1 1 1 1 1 1 1 1 1 1 1 0 0 0 0 0 0 "/>
</feComponentTransfer>
<feComposite operator="in" in2="shape" in="coloredNoise2" result="noise2Clipped" />
<feFlood flood-color="rgba(0, 0, 0, 0.06)" result="color1Flood" />
<feComposite operator="in" in2="noise1Clipped" in="color1Flood" result="color1" />
<feFlood flood-color="rgba(255, 173, 254, 0.08)" result="color2Flood" />
<feComposite operator="in" in2="noise2Clipped" in="color2Flood" result="color2" />
<feMerge result="effect1_noise_8_32">
<feMergeNode in="shape" />
<feMergeNode in="color1" />
<feMergeNode in="color2" />
</feMerge>
</filter>
<clipPath id="clip0_8_32">
<rect width="80" height="80" fill="white"/>
</clipPath>
</defs>
</svg>
